PathFileType	4	(X/Y/Z)	Patient4_TMGait_0pt7_01_right_45.trc.trc
DataRate	CameraRate	NumFrames	NumMarkers	Units	OrigDataRate	OrigDataStartFrame	OrigNumFrames
83.333333333333	83.333333333333	5	33	mm	83.333333333333	71	       141
Frame#	Time	Sacral			L.Shoulder			Chest			R.Shoulder			Neck			R.ASIS			L.ASIS			R.Thigh.Superior			R.Thigh.Lateral			R.Thigh.Inferior			R.Patella			L.Thigh.Superior			L.Thigh.Lateral			L.Thigh.Inferior			L.Patella			L.Shank.Superior			L.Shank.Lateral			L.Shank.Inferior			R.Shank.Superior			R.Shank.Lateral			R.Shank.Inferior			R.Heel			R.Midfoot.Superior			R.Midfoot.Lateral			R.Toe			L.Heel			L.Midfoot.Lateral			L.Midfoot.Superior			L.Toe			L.Elbow			L.Wrist			R.Elbow			R.Wrist			
		X1	Y1	Z1	X2	Y2	Z2	X3	Y3	Z3	X4	Y4	Z4	X5	Y5	Z5	X6	Y6	Z6	X7	Y7	Z7	X8	Y8	Z8	X9	Y9	Z9	X10	Y10	Z10	X11	Y11	Z11	X12	Y12	Z12	X13	Y13	Z13	X14	Y14	Z14	X15	Y15	Z15	X16	Y16	Z16	X17	Y17	Z17	X18	Y18	Z18	X19	Y19	Z19	X20	Y20	Z20	X21	Y21	Z21	X22	Y22	Z22	X23	Y23	Z23	X24	Y24	Z24	X25	Y25	Z25	X26	Y26	Z26	X27	Y27	Z27	X28	Y28	Z28	X29	Y29	Z29	X30	Y30	Z30	X31	Y31	Z31	X32	Y32	Z32	X33	Y33	Z33	

71	52.430000000000	871.778695734014	1023.150428392852	536.300617349145	1094.549540636723	1414.126217378935	330.234205828641	1201.116157546828	1331.295181151662	484.036036129069	1149.621080470005	1426.868833040672	658.920237411028	1122.627330995397	1477.437101701792	481.393107723871	1090.100763913956	930.265009553106	645.044083377195	1069.461171417256	946.062292452989	370.157801195750	1075.908419718465	720.025503660967	623.140504865979	966.904109175358	637.081829774869	687.868980899522	1024.075458619525	565.279993079031	610.032379688035	1004.051830097421	486.061520442311	617.147235056667	1131.879079722500	770.033194996959	403.470384721263	1086.323332727177	645.889471206909	316.641333574879	1183.852262564981	583.613203110132	385.031761850660	1209.372636353469	519.910549833358	380.644968530980	1194.148372202690	448.761070522620	366.353812706744	1132.401363309654	318.306296618848	310.805335888370	1221.146614660681	220.111087663639	366.528090828689	968.659643980868	403.670382634651	625.224467208169	889.202638285644	307.601474668034	688.542303400653	923.707729490030	208.175210130960	626.376351937028	778.904870921555	47.455638896110	597.577607698009	950.644770249475	96.997325482020	634.880307814890	861.030688569898	38.845998962447	672.576337220278	1069.527296453003	39.827235549644	665.286010520176	1140.871898720484	40.359017226012	400.425812618981	1219.054514852480	43.713059824005	324.465161554538	1288.617670900662	121.120715494455	347.791501297816	1423.584035057085	91.072509506357	329.886407812702	925.500982987447	1099.205665627133	251.282018869829	902.235477889930	837.729834124202	253.983890038619	1245.208008351929	1116.133102625115	801.714366608888	1475.190980681049	1149.228048506151	705.364133436150	
72	52.442000000000	873.023130323802	1021.547288924799	533.691128352651	1094.035549862793	1413.545185406045	327.980187459688	1200.831025440413	1331.101911416372	481.813363885814	1148.523473367510	1426.191383644884	656.664765119240	1121.618040895043	1476.749371150838	479.218417913465	1091.447213789112	929.295155399420	642.801946506662	1070.952283796202	944.429681242207	367.909385312876	1075.765609933468	718.694793913718	621.205651520394	965.951330646280	636.455939594760	686.185630429461	1022.381714524016	564.041214188438	608.500585796714	1001.472081123429	484.685654954963	615.571908378137	1132.650524568055	767.270926099243	400.856791833158	1083.801996498819	642.647590384811	316.255090424102	1181.996731007852	580.569741168818	383.368450205862	1205.752315542795	516.477553730339	380.133070426278	1191.081259249921	445.245348969480	366.229895817384	1128.696891512172	314.555091626272	312.512086421340	1217.806083341128	216.916970683728	368.277770708599	964.999586988023	402.510742492675	624.000773970167	884.406263746459	307.803561894351	687.977065312113	917.173897291423	207.782727290116	626.013207687872	770.463491286003	48.000920854361	597.906600709845	942.338216867321	97.075576548955	634.953366965102	852.630865871807	39.098732799648	672.824661775910	1061.106503497975	39.638494563923	665.365780947309	1136.812421520374	39.047995826069	403.942678363061	1214.234626665809	41.530641419460	327.104788515331	1285.114028936291	117.315100904976	350.138340622940	1419.357480209769	85.128286159560	330.858686220974	926.466283138060	1098.054010104836	248.489762483680	906.305023767804	836.228041898574	250.641904805317	1245.624018701044	1114.889216744668	797.131921791507	1472.419144834614	1154.700058566125	697.015034409986	
73	52.454000000000	874.308368680241	1019.934632451770	530.859928267616	1093.627966193212	1412.945860869746	325.506256104577	1200.585314282750	1330.942102516578	479.441625175713	1147.373428195091	1425.575433818647	654.233371126294	1120.657254613110	1476.097510408758	476.790066505498	1092.761742350066	928.359942633853	640.479721783798	1072.606553306520	942.918421419822	365.581765547927	1076.020300297587	717.427628624122	619.249436030738	965.502271835018	635.721408834354	684.336025854657	1021.439677159257	562.763265143823	606.868786560119	999.700229904344	483.102771855905	613.841466688321	1134.010607616283	764.992954287719	398.254988405069	1082.056568407148	639.851572909439	316.080597142097	1180.993585897955	578.013959644852	381.837837368938	1202.862425252580	513.269989715054	379.884935338377	1188.509464613878	441.860694004967	366.350918123791	1125.046766346251	311.360145341123	313.971486736580	1213.560392047008	213.706551227040	370.085128250115	962.045737104352	401.177482392084	622.637919795000	880.101927167611	308.024003629492	687.292491775512	910.928660651939	207.364695044873	625.592759430745	762.034280208138	48.775097453371	598.251706661516	934.122862611335	97.211427683307	635.023663734384	844.260358951720	39.455962707196	673.062554526199	1052.706359255869	39.421518995988	665.432724508350	1130.524927070543	38.231108396369	406.833628182422	1207.398825184458	39.750070329988	329.306740277976	1279.964761184041	113.363973572275	352.611315663804	1413.360294978160	78.317508350036	332.132561718432	927.929513381671	1096.680729327489	245.328175400163	911.214805551737	834.510955156308	246.962046911387	1245.347355042225	1113.482480249500	792.559963857708	1469.010188826547	1158.922829759990	688.784264434991	
74	52.466000000000	875.591606012574	1018.375856999383	527.853325979908	1093.323755395486	1412.370793330495	322.840390775205	1200.383003274907	1330.837822100321	476.932783390047	1146.226287289350	1425.053090982873	651.650912095024	1119.775459972919	1475.525016642491	474.132867363530	1094.013425542800	927.498187600628	638.074621102244	1074.367916738624	941.607527461936	363.175787918528	1076.669446593697	716.264340486071	617.262007358073	965.588554922302	634.894240081683	682.331087313133	1021.300191228383	561.467612722802	605.147869151857	998.819641105175	481.299981845103	611.998117007650	1135.872302567886	763.222584390553	395.699944421429	1081.122330194103	637.606630376292	315.951788369315	1180.722535682570	575.952730150331	380.452427360227	1200.684493138422	510.406713202518	379.828843561107	1186.464029649315	438.763009977090	366.612077397597	1121.701504223496	308.775616175182	315.001381921166	1208.777935509753	210.633342134084	371.810654326370	959.839573179274	399.697892657710	621.161062439913	876.324981164970	308.301317295162	686.489081414784	905.009586250894	206.968336946025	625.114625051221	753.641957242224	49.876697920858	598.601276608908	926.046747321334	97.420489036720	635.091471796228	835.936107054705	39.973692997404	673.282868204924	1044.336823144344	39.184506173863	665.481889356402	1122.696036139675	37.781277825530	409.012807978015	1199.237794897572	38.365882117518	330.998147303374	1273.655029557637	109.527654622793	355.038513123157	1406.173983241082	71.270922794442	333.588897867187	929.865616832041	1095.143029022302	241.836287972269	916.916421795245	832.648068743754	242.943349657987	1244.335629058467	1111.920325809677	788.062090195278	1465.035634476871	1161.831216022988	680.736824412704	
75	52.478000000000	876.832515307784	1016.945040166125	524.717739267078	1093.117351455511	1411.876045470859	320.019581452492	1200.224873764493	1330.822550160566	474.306790033464	1145.135884477941	1424.667709361701	648.947925179175	1119.001091711020	1475.085206792655	471.283140619603	1095.177425517276	926.759648856264	635.580800381532	1076.176703733499	940.581805963141	360.687274722957	1077.707903818784	715.258643894277	615.229097721423	966.241474559586	634.008424945278	680.186345424767	1022.007534063577	560.194880882493	603.354318442954	998.910286760155	479.285454720805	610.107571824990	1138.113819032813	761.978730620868	393.227317692508	1080.995487539012	635.999133808527	315.699036642176	1181.025907782321	574.394070015251	379.208528936131	1199.157300558201	507.993699340170	379.862661550226	1184.916639432642	436.082168640077	366.896872298381	1118.799565235034	306.839761709442	315.477402448547	1203.738537205102	207.846844758577	373.326531589822	958.412334751332	398.121775686898	619.612792808600	873.107957755147	308.696195924370	685.577058517525	899.463699368238	206.662734035307	624.590810512434	745.325826006594	51.430058246051	598.943103529894	918.171557263548	97.719749376313	635.162011469419	827.682126633658	40.724003299622	673.478617946600	1036.009175576587	38.937569918942	665.507344456230	1113.944153508292	37.596125699080	410.478940088204	1190.343716246371	37.358379683717	332.163437881091	1266.585556106799	106.048447449219	357.249442576595	1398.278848771011	64.581136058309	335.070869425154	932.244262002870	1093.516379252982	238.063247096709	923.357222286010	830.728844640621	238.593241747036	1242.540436336712	1110.224015090488	783.691509420071	1460.559796418930	1163.365578459156	672.944218076082	
